<mxfile host="app.diagrams.net" modified="2023-09-05T09:22:39.662Z" agent="Mozilla/5.0 (Macintosh; Intel Mac OS X 10_15_7) AppleWebKit/537.36 (KHTML, like Gecko) Chrome/116.0.0.0 Safari/537.36" etag="JL6v7RkUUu5jayiuB8nn" version="21.6.9" type="github">
  <diagram name="Page-1" id="74e2e168-ea6b-b213-b513-2b3c1d86103e">
    <mxGraphModel dx="2534" dy="1615" grid="1" gridSize="10" guides="1" tooltips="1" connect="1" arrows="1" fold="1" page="1" pageScale="1" pageWidth="1100" pageHeight="850" background="none" math="0" shadow="0">
      <root>
        <mxCell id="0" />
        <mxCell id="1" parent="0" />
        <mxCell id="aOoXSuY79iah1pnQ__aG-5" value="" style="edgeStyle=orthogonalEdgeStyle;rounded=0;orthogonalLoop=1;jettySize=auto;html=1;" parent="1" source="aOoXSuY79iah1pnQ__aG-1" target="aOoXSuY79iah1pnQ__aG-4" edge="1">
          <mxGeometry relative="1" as="geometry" />
        </mxCell>
        <mxCell id="aOoXSuY79iah1pnQ__aG-1" value="&lt;font style=&quot;font-size: 14px;&quot;&gt;start&lt;/font&gt;" style="strokeWidth=2;html=1;shape=mxgraph.flowchart.start_2;whiteSpace=wrap;" parent="1" vertex="1">
          <mxGeometry x="470" y="-182" width="100" height="100" as="geometry" />
        </mxCell>
        <mxCell id="aOoXSuY79iah1pnQ__aG-7" value="" style="edgeStyle=orthogonalEdgeStyle;rounded=0;orthogonalLoop=1;jettySize=auto;html=1;" parent="1" source="aOoXSuY79iah1pnQ__aG-4" target="aOoXSuY79iah1pnQ__aG-6" edge="1">
          <mxGeometry relative="1" as="geometry" />
        </mxCell>
        <mxCell id="aOoXSuY79iah1pnQ__aG-4" value="kontrola typu uÅ¾ivatele" style="whiteSpace=wrap;html=1;strokeWidth=2;" parent="1" vertex="1">
          <mxGeometry x="460" y="18" width="120" height="60" as="geometry" />
        </mxCell>
        <mxCell id="aOoXSuY79iah1pnQ__aG-13" value="" style="edgeStyle=orthogonalEdgeStyle;rounded=0;orthogonalLoop=1;jettySize=auto;html=1;" parent="1" source="aOoXSuY79iah1pnQ__aG-6" target="aOoXSuY79iah1pnQ__aG-12" edge="1">
          <mxGeometry relative="1" as="geometry" />
        </mxCell>
        <mxCell id="aOoXSuY79iah1pnQ__aG-16" value="ano" style="edgeLabel;html=1;align=center;verticalAlign=middle;resizable=0;points=[];" parent="aOoXSuY79iah1pnQ__aG-13" vertex="1" connectable="0">
          <mxGeometry x="-0.1794" y="-1" relative="1" as="geometry">
            <mxPoint as="offset" />
          </mxGeometry>
        </mxCell>
        <mxCell id="aOoXSuY79iah1pnQ__aG-18" value="" style="edgeStyle=orthogonalEdgeStyle;rounded=0;orthogonalLoop=1;jettySize=auto;html=1;" parent="1" source="aOoXSuY79iah1pnQ__aG-6" target="aOoXSuY79iah1pnQ__aG-17" edge="1">
          <mxGeometry relative="1" as="geometry" />
        </mxCell>
        <mxCell id="aOoXSuY79iah1pnQ__aG-19" value="ne" style="edgeLabel;html=1;align=center;verticalAlign=middle;resizable=0;points=[];" parent="aOoXSuY79iah1pnQ__aG-18" vertex="1" connectable="0">
          <mxGeometry x="-0.1774" y="1" relative="1" as="geometry">
            <mxPoint as="offset" />
          </mxGeometry>
        </mxCell>
        <mxCell id="aOoXSuY79iah1pnQ__aG-6" value="KC" style="rhombus;whiteSpace=wrap;html=1;strokeWidth=2;" parent="1" vertex="1">
          <mxGeometry x="480" y="148" width="80" height="80" as="geometry" />
        </mxCell>
        <mxCell id="aOoXSuY79iah1pnQ__aG-12" value="2605-enakc&#xa;&#xa;" style="shape=waypoint;sketch=0;size=6;pointerEvents=1;points=[];fillColor=default;resizable=0;rotatable=0;perimeter=centerPerimeter;snapToPoint=1;strokeWidth=2;spacingTop=0;fontColor=default;" parent="1" vertex="1">
          <mxGeometry x="670" y="178" width="20" height="20" as="geometry" />
        </mxCell>
        <mxCell id="aOoXSuY79iah1pnQ__aG-21" value="" style="edgeStyle=orthogonalEdgeStyle;rounded=0;orthogonalLoop=1;jettySize=auto;html=1;" parent="1" source="aOoXSuY79iah1pnQ__aG-17" target="aOoXSuY79iah1pnQ__aG-20" edge="1">
          <mxGeometry relative="1" as="geometry" />
        </mxCell>
        <mxCell id="aOoXSuY79iah1pnQ__aG-22" value="ano" style="edgeLabel;html=1;align=center;verticalAlign=middle;resizable=0;points=[];" parent="aOoXSuY79iah1pnQ__aG-21" vertex="1" connectable="0">
          <mxGeometry x="-0.3857" y="1" relative="1" as="geometry">
            <mxPoint as="offset" />
          </mxGeometry>
        </mxCell>
        <mxCell id="8ODPSEy53-7lQ5bBWnei-2" value="" style="edgeStyle=orthogonalEdgeStyle;rounded=0;orthogonalLoop=1;jettySize=auto;html=1;" edge="1" parent="1" source="aOoXSuY79iah1pnQ__aG-17" target="8ODPSEy53-7lQ5bBWnei-1">
          <mxGeometry relative="1" as="geometry" />
        </mxCell>
        <mxCell id="8ODPSEy53-7lQ5bBWnei-3" value="ne" style="edgeLabel;html=1;align=center;verticalAlign=middle;resizable=0;points=[];" vertex="1" connectable="0" parent="8ODPSEy53-7lQ5bBWnei-2">
          <mxGeometry x="-0.2" y="-2" relative="1" as="geometry">
            <mxPoint as="offset" />
          </mxGeometry>
        </mxCell>
        <mxCell id="aOoXSuY79iah1pnQ__aG-17" value="CShub" style="rhombus;whiteSpace=wrap;html=1;strokeWidth=2;" parent="1" vertex="1">
          <mxGeometry x="480" y="308" width="80" height="80" as="geometry" />
        </mxCell>
        <mxCell id="aOoXSuY79iah1pnQ__aG-20" value="0105-enahb&#xa;&#xa;" style="shape=waypoint;sketch=0;size=6;pointerEvents=1;points=[];fillColor=default;resizable=0;rotatable=0;perimeter=centerPerimeter;snapToPoint=1;strokeWidth=2;" parent="1" vertex="1">
          <mxGeometry x="670" y="338" width="20" height="20" as="geometry" />
        </mxCell>
        <mxCell id="aOoXSuY79iah1pnQ__aG-26" value="" style="edgeStyle=orthogonalEdgeStyle;rounded=0;orthogonalLoop=1;jettySize=auto;html=1;" parent="1" source="aOoXSuY79iah1pnQ__aG-23" target="aOoXSuY79iah1pnQ__aG-25" edge="1">
          <mxGeometry relative="1" as="geometry" />
        </mxCell>
        <mxCell id="aOoXSuY79iah1pnQ__aG-27" value="ne" style="edgeLabel;html=1;align=center;verticalAlign=middle;resizable=0;points=[];" parent="aOoXSuY79iah1pnQ__aG-26" vertex="1" connectable="0">
          <mxGeometry x="-0.2377" relative="1" as="geometry">
            <mxPoint as="offset" />
          </mxGeometry>
        </mxCell>
        <mxCell id="aOoXSuY79iah1pnQ__aG-29" value="" style="edgeStyle=orthogonalEdgeStyle;rounded=0;orthogonalLoop=1;jettySize=auto;html=1;" parent="1" source="aOoXSuY79iah1pnQ__aG-23" target="aOoXSuY79iah1pnQ__aG-28" edge="1">
          <mxGeometry relative="1" as="geometry" />
        </mxCell>
        <mxCell id="aOoXSuY79iah1pnQ__aG-30" value="ano" style="edgeLabel;html=1;align=center;verticalAlign=middle;resizable=0;points=[];" parent="aOoXSuY79iah1pnQ__aG-29" vertex="1" connectable="0">
          <mxGeometry x="-0.1053" y="-1" relative="1" as="geometry">
            <mxPoint as="offset" />
          </mxGeometry>
        </mxCell>
        <mxCell id="aOoXSuY79iah1pnQ__aG-23" value="store" style="rhombus;whiteSpace=wrap;html=1;strokeWidth=2;" parent="1" vertex="1">
          <mxGeometry x="480" y="630" width="80" height="80" as="geometry" />
        </mxCell>
        <mxCell id="aOoXSuY79iah1pnQ__aG-25" value="0102-enaft&#xa;&#xa;" style="shape=waypoint;sketch=0;size=6;pointerEvents=1;points=[];fillColor=default;resizable=0;rotatable=0;perimeter=centerPerimeter;snapToPoint=1;strokeWidth=2;" parent="1" vertex="1">
          <mxGeometry x="670" y="660" width="20" height="20" as="geometry" />
        </mxCell>
        <mxCell id="aOoXSuY79iah1pnQ__aG-32" value="" style="edgeStyle=orthogonalEdgeStyle;rounded=0;orthogonalLoop=1;jettySize=auto;html=1;" parent="1" source="aOoXSuY79iah1pnQ__aG-28" target="aOoXSuY79iah1pnQ__aG-31" edge="1">
          <mxGeometry relative="1" as="geometry" />
        </mxCell>
        <mxCell id="aOoXSuY79iah1pnQ__aG-28" value="kontrola &quot;state&quot; parametru" style="whiteSpace=wrap;html=1;strokeWidth=2;" parent="1" vertex="1">
          <mxGeometry x="460" y="800" width="120" height="60" as="geometry" />
        </mxCell>
        <mxCell id="aOoXSuY79iah1pnQ__aG-37" value="" style="edgeStyle=orthogonalEdgeStyle;rounded=0;orthogonalLoop=1;jettySize=auto;html=1;" parent="1" source="aOoXSuY79iah1pnQ__aG-31" target="aOoXSuY79iah1pnQ__aG-36" edge="1">
          <mxGeometry relative="1" as="geometry" />
        </mxCell>
        <mxCell id="aOoXSuY79iah1pnQ__aG-38" value="ano" style="edgeLabel;html=1;align=center;verticalAlign=middle;resizable=0;points=[];" parent="aOoXSuY79iah1pnQ__aG-37" vertex="1" connectable="0">
          <mxGeometry x="-0.2396" relative="1" as="geometry">
            <mxPoint as="offset" />
          </mxGeometry>
        </mxCell>
        <mxCell id="aOoXSuY79iah1pnQ__aG-68" value="" style="edgeStyle=orthogonalEdgeStyle;rounded=0;orthogonalLoop=1;jettySize=auto;html=1;" parent="1" source="aOoXSuY79iah1pnQ__aG-31" target="aOoXSuY79iah1pnQ__aG-67" edge="1">
          <mxGeometry relative="1" as="geometry" />
        </mxCell>
        <mxCell id="aOoXSuY79iah1pnQ__aG-69" value="ne" style="edgeLabel;html=1;align=center;verticalAlign=middle;resizable=0;points=[];" parent="aOoXSuY79iah1pnQ__aG-68" vertex="1" connectable="0">
          <mxGeometry x="0.0784" y="1" relative="1" as="geometry">
            <mxPoint as="offset" />
          </mxGeometry>
        </mxCell>
        <mxCell id="aOoXSuY79iah1pnQ__aG-31" value="state.section == overview" style="rhombus;whiteSpace=wrap;html=1;strokeWidth=2;" parent="1" vertex="1">
          <mxGeometry x="455" y="900" width="130" height="130" as="geometry" />
        </mxCell>
        <mxCell id="aOoXSuY79iah1pnQ__aG-40" value="" style="edgeStyle=orthogonalEdgeStyle;rounded=0;orthogonalLoop=1;jettySize=auto;html=1;" parent="1" source="aOoXSuY79iah1pnQ__aG-36" target="aOoXSuY79iah1pnQ__aG-39" edge="1">
          <mxGeometry relative="1" as="geometry" />
        </mxCell>
        <mxCell id="aOoXSuY79iah1pnQ__aG-36" value="kontrola state.displayType&amp;nbsp;" style="whiteSpace=wrap;html=1;strokeWidth=2;" parent="1" vertex="1">
          <mxGeometry x="670" y="935" width="120" height="60" as="geometry" />
        </mxCell>
        <mxCell id="aOoXSuY79iah1pnQ__aG-42" value="" style="edgeStyle=orthogonalEdgeStyle;rounded=0;orthogonalLoop=1;jettySize=auto;html=1;" parent="1" source="aOoXSuY79iah1pnQ__aG-39" target="aOoXSuY79iah1pnQ__aG-41" edge="1">
          <mxGeometry relative="1" as="geometry" />
        </mxCell>
        <mxCell id="aOoXSuY79iah1pnQ__aG-43" value="ano" style="edgeLabel;html=1;align=center;verticalAlign=middle;resizable=0;points=[];" parent="aOoXSuY79iah1pnQ__aG-42" vertex="1" connectable="0">
          <mxGeometry x="-0.3263" relative="1" as="geometry">
            <mxPoint as="offset" />
          </mxGeometry>
        </mxCell>
        <mxCell id="aOoXSuY79iah1pnQ__aG-45" value="" style="edgeStyle=orthogonalEdgeStyle;rounded=0;orthogonalLoop=1;jettySize=auto;html=1;" parent="1" source="aOoXSuY79iah1pnQ__aG-39" target="aOoXSuY79iah1pnQ__aG-44" edge="1">
          <mxGeometry relative="1" as="geometry" />
        </mxCell>
        <mxCell id="aOoXSuY79iah1pnQ__aG-46" value="ne" style="edgeLabel;html=1;align=center;verticalAlign=middle;resizable=0;points=[];" parent="aOoXSuY79iah1pnQ__aG-45" vertex="1" connectable="0">
          <mxGeometry x="-0.0559" y="1" relative="1" as="geometry">
            <mxPoint as="offset" />
          </mxGeometry>
        </mxCell>
        <mxCell id="aOoXSuY79iah1pnQ__aG-39" value="OVERVIEW_CARD" style="rhombus;whiteSpace=wrap;html=1;strokeWidth=2;" parent="1" vertex="1">
          <mxGeometry x="880" y="897.5" width="135" height="135" as="geometry" />
        </mxCell>
        <mxCell id="aOoXSuY79iah1pnQ__aG-41" value="0309-enagw&#xa;&#xa;" style="shape=waypoint;sketch=0;size=6;pointerEvents=1;points=[];fillColor=default;resizable=0;rotatable=0;perimeter=centerPerimeter;snapToPoint=1;strokeWidth=2;" parent="1" vertex="1">
          <mxGeometry x="1152.5" y="955" width="20" height="20" as="geometry" />
        </mxCell>
        <mxCell id="aOoXSuY79iah1pnQ__aG-48" value="" style="edgeStyle=orthogonalEdgeStyle;rounded=0;orthogonalLoop=1;jettySize=auto;html=1;" parent="1" source="aOoXSuY79iah1pnQ__aG-44" target="aOoXSuY79iah1pnQ__aG-47" edge="1">
          <mxGeometry relative="1" as="geometry" />
        </mxCell>
        <mxCell id="aOoXSuY79iah1pnQ__aG-49" value="ano" style="edgeLabel;html=1;align=center;verticalAlign=middle;resizable=0;points=[];" parent="aOoXSuY79iah1pnQ__aG-48" vertex="1" connectable="0">
          <mxGeometry x="-0.3549" relative="1" as="geometry">
            <mxPoint as="offset" />
          </mxGeometry>
        </mxCell>
        <mxCell id="aOoXSuY79iah1pnQ__aG-51" value="" style="edgeStyle=orthogonalEdgeStyle;rounded=0;orthogonalLoop=1;jettySize=auto;html=1;" parent="1" source="aOoXSuY79iah1pnQ__aG-44" target="aOoXSuY79iah1pnQ__aG-50" edge="1">
          <mxGeometry relative="1" as="geometry" />
        </mxCell>
        <mxCell id="aOoXSuY79iah1pnQ__aG-52" value="ne" style="edgeLabel;html=1;align=center;verticalAlign=middle;resizable=0;points=[];" parent="aOoXSuY79iah1pnQ__aG-51" vertex="1" connectable="0">
          <mxGeometry x="-0.1414" y="4" relative="1" as="geometry">
            <mxPoint as="offset" />
          </mxGeometry>
        </mxCell>
        <mxCell id="aOoXSuY79iah1pnQ__aG-44" value="&lt;font style=&quot;font-size: 11px;&quot;&gt;OVERVIEW_CARD&lt;br&gt;_CALL2ACTION&lt;/font&gt;" style="rhombus;whiteSpace=wrap;html=1;strokeWidth=2;" parent="1" vertex="1">
          <mxGeometry x="880" y="1112.5" width="135" height="135" as="geometry" />
        </mxCell>
        <mxCell id="aOoXSuY79iah1pnQ__aG-47" value="0309-enagw&#xa;&#xa;" style="shape=waypoint;sketch=0;size=6;pointerEvents=1;points=[];fillColor=default;resizable=0;rotatable=0;perimeter=centerPerimeter;snapToPoint=1;strokeWidth=2;" parent="1" vertex="1">
          <mxGeometry x="1152.5" y="1170" width="20" height="20" as="geometry" />
        </mxCell>
        <mxCell id="aOoXSuY79iah1pnQ__aG-54" value="" style="edgeStyle=orthogonalEdgeStyle;rounded=0;orthogonalLoop=1;jettySize=auto;html=1;" parent="1" source="aOoXSuY79iah1pnQ__aG-50" target="aOoXSuY79iah1pnQ__aG-53" edge="1">
          <mxGeometry relative="1" as="geometry" />
        </mxCell>
        <mxCell id="aOoXSuY79iah1pnQ__aG-55" value="ano" style="edgeLabel;html=1;align=center;verticalAlign=middle;resizable=0;points=[];" parent="aOoXSuY79iah1pnQ__aG-54" vertex="1" connectable="0">
          <mxGeometry x="-0.2978" y="-3" relative="1" as="geometry">
            <mxPoint as="offset" />
          </mxGeometry>
        </mxCell>
        <mxCell id="aOoXSuY79iah1pnQ__aG-57" value="" style="edgeStyle=orthogonalEdgeStyle;rounded=0;orthogonalLoop=1;jettySize=auto;html=1;" parent="1" source="aOoXSuY79iah1pnQ__aG-50" target="aOoXSuY79iah1pnQ__aG-56" edge="1">
          <mxGeometry relative="1" as="geometry" />
        </mxCell>
        <mxCell id="aOoXSuY79iah1pnQ__aG-58" value="ne" style="edgeLabel;html=1;align=center;verticalAlign=middle;resizable=0;points=[];" parent="aOoXSuY79iah1pnQ__aG-57" vertex="1" connectable="0">
          <mxGeometry x="-0.148" relative="1" as="geometry">
            <mxPoint as="offset" />
          </mxGeometry>
        </mxCell>
        <mxCell id="aOoXSuY79iah1pnQ__aG-50" value="OVERVIEW_CARD&lt;br&gt;_GGO" style="rhombus;whiteSpace=wrap;html=1;strokeWidth=2;" parent="1" vertex="1">
          <mxGeometry x="880" y="1327.5" width="135" height="135" as="geometry" />
        </mxCell>
        <mxCell id="aOoXSuY79iah1pnQ__aG-53" value="3108-enago&#xa;&#xa;" style="shape=waypoint;sketch=0;size=6;pointerEvents=1;points=[];fillColor=default;resizable=0;rotatable=0;perimeter=centerPerimeter;snapToPoint=1;strokeWidth=2;" parent="1" vertex="1">
          <mxGeometry x="1152.5" y="1385" width="20" height="20" as="geometry" />
        </mxCell>
        <mxCell id="aOoXSuY79iah1pnQ__aG-60" value="" style="edgeStyle=orthogonalEdgeStyle;rounded=0;orthogonalLoop=1;jettySize=auto;html=1;" parent="1" source="aOoXSuY79iah1pnQ__aG-56" target="aOoXSuY79iah1pnQ__aG-59" edge="1">
          <mxGeometry relative="1" as="geometry" />
        </mxCell>
        <mxCell id="aOoXSuY79iah1pnQ__aG-61" value="ano" style="edgeLabel;html=1;align=center;verticalAlign=middle;resizable=0;points=[];" parent="aOoXSuY79iah1pnQ__aG-60" vertex="1" connectable="0">
          <mxGeometry x="-0.255" y="-2" relative="1" as="geometry">
            <mxPoint as="offset" />
          </mxGeometry>
        </mxCell>
        <mxCell id="aOoXSuY79iah1pnQ__aG-63" value="" style="edgeStyle=orthogonalEdgeStyle;rounded=0;orthogonalLoop=1;jettySize=auto;html=1;" parent="1" source="aOoXSuY79iah1pnQ__aG-56" target="aOoXSuY79iah1pnQ__aG-62" edge="1">
          <mxGeometry relative="1" as="geometry" />
        </mxCell>
        <mxCell id="aOoXSuY79iah1pnQ__aG-64" value="ne" style="edgeLabel;html=1;align=center;verticalAlign=middle;resizable=0;points=[];" parent="aOoXSuY79iah1pnQ__aG-63" vertex="1" connectable="0">
          <mxGeometry x="-0.3131" relative="1" as="geometry">
            <mxPoint as="offset" />
          </mxGeometry>
        </mxCell>
        <mxCell id="aOoXSuY79iah1pnQ__aG-56" value="PUSH&lt;br&gt;_NOTIFICATION&lt;br&gt;_GGO" style="rhombus;whiteSpace=wrap;html=1;strokeWidth=2;" parent="1" vertex="1">
          <mxGeometry x="880" y="1542.5" width="135" height="135" as="geometry" />
        </mxCell>
        <mxCell id="aOoXSuY79iah1pnQ__aG-59" value="3108-enago&#xa;&#xa;" style="shape=waypoint;sketch=0;size=6;pointerEvents=1;points=[];fillColor=default;resizable=0;rotatable=0;perimeter=centerPerimeter;snapToPoint=1;strokeWidth=2;" parent="1" vertex="1">
          <mxGeometry x="1152.5" y="1600" width="20" height="20" as="geometry" />
        </mxCell>
        <mxCell id="aOoXSuY79iah1pnQ__aG-62" value="&#xa;&#xa;3108-enago" style="shape=waypoint;sketch=0;size=6;pointerEvents=1;points=[];fillColor=default;resizable=0;rotatable=0;perimeter=centerPerimeter;snapToPoint=1;strokeWidth=2;spacingTop=0;" parent="1" vertex="1">
          <mxGeometry x="937.5" y="1740" width="20" height="20" as="geometry" />
        </mxCell>
        <mxCell id="aOoXSuY79iah1pnQ__aG-71" value="" style="edgeStyle=orthogonalEdgeStyle;rounded=0;orthogonalLoop=1;jettySize=auto;html=1;" parent="1" source="aOoXSuY79iah1pnQ__aG-67" target="aOoXSuY79iah1pnQ__aG-70" edge="1">
          <mxGeometry relative="1" as="geometry" />
        </mxCell>
        <mxCell id="aOoXSuY79iah1pnQ__aG-67" value="kontrola state.section" style="whiteSpace=wrap;html=1;strokeWidth=2;" parent="1" vertex="1">
          <mxGeometry x="210" y="935" width="160" height="60" as="geometry" />
        </mxCell>
        <mxCell id="aOoXSuY79iah1pnQ__aG-73" value="" style="edgeStyle=orthogonalEdgeStyle;rounded=0;orthogonalLoop=1;jettySize=auto;html=1;" parent="1" source="aOoXSuY79iah1pnQ__aG-70" target="aOoXSuY79iah1pnQ__aG-72" edge="1">
          <mxGeometry relative="1" as="geometry" />
        </mxCell>
        <mxCell id="aOoXSuY79iah1pnQ__aG-74" value="ano" style="edgeLabel;html=1;align=center;verticalAlign=middle;resizable=0;points=[];" parent="aOoXSuY79iah1pnQ__aG-73" vertex="1" connectable="0">
          <mxGeometry x="0.0349" y="1" relative="1" as="geometry">
            <mxPoint as="offset" />
          </mxGeometry>
        </mxCell>
        <mxCell id="aOoXSuY79iah1pnQ__aG-76" value="" style="edgeStyle=orthogonalEdgeStyle;rounded=0;orthogonalLoop=1;jettySize=auto;html=1;" parent="1" source="aOoXSuY79iah1pnQ__aG-70" target="aOoXSuY79iah1pnQ__aG-75" edge="1">
          <mxGeometry relative="1" as="geometry" />
        </mxCell>
        <mxCell id="aOoXSuY79iah1pnQ__aG-77" value="ne" style="edgeLabel;html=1;align=center;verticalAlign=middle;resizable=0;points=[];" parent="aOoXSuY79iah1pnQ__aG-76" vertex="1" connectable="0">
          <mxGeometry x="-0.2" y="-1" relative="1" as="geometry">
            <mxPoint as="offset" />
          </mxGeometry>
        </mxCell>
        <mxCell id="aOoXSuY79iah1pnQ__aG-70" value="shop/products" style="rhombus;whiteSpace=wrap;html=1;strokeWidth=2;" parent="1" vertex="1">
          <mxGeometry x="-20" y="910" width="110" height="110" as="geometry" />
        </mxCell>
        <mxCell id="aOoXSuY79iah1pnQ__aG-72" value="0309-enagw&#xa;&#xa;" style="shape=waypoint;sketch=0;size=6;pointerEvents=1;points=[];fillColor=default;resizable=0;rotatable=0;perimeter=centerPerimeter;snapToPoint=1;strokeWidth=2;" parent="1" vertex="1">
          <mxGeometry x="-165" y="955" width="20" height="20" as="geometry" />
        </mxCell>
        <mxCell id="aOoXSuY79iah1pnQ__aG-79" value="" style="edgeStyle=orthogonalEdgeStyle;rounded=0;orthogonalLoop=1;jettySize=auto;html=1;" parent="1" source="aOoXSuY79iah1pnQ__aG-75" target="aOoXSuY79iah1pnQ__aG-78" edge="1">
          <mxGeometry relative="1" as="geometry" />
        </mxCell>
        <mxCell id="aOoXSuY79iah1pnQ__aG-80" value="ano" style="edgeLabel;html=1;align=center;verticalAlign=middle;resizable=0;points=[];" parent="aOoXSuY79iah1pnQ__aG-79" vertex="1" connectable="0">
          <mxGeometry x="0.1852" y="3" relative="1" as="geometry">
            <mxPoint as="offset" />
          </mxGeometry>
        </mxCell>
        <mxCell id="aOoXSuY79iah1pnQ__aG-82" value="" style="edgeStyle=orthogonalEdgeStyle;rounded=0;orthogonalLoop=1;jettySize=auto;html=1;" parent="1" source="aOoXSuY79iah1pnQ__aG-75" target="aOoXSuY79iah1pnQ__aG-81" edge="1">
          <mxGeometry relative="1" as="geometry" />
        </mxCell>
        <mxCell id="aOoXSuY79iah1pnQ__aG-86" value="ne" style="edgeLabel;html=1;align=center;verticalAlign=middle;resizable=0;points=[];" parent="aOoXSuY79iah1pnQ__aG-82" vertex="1" connectable="0">
          <mxGeometry x="-0.125" y="-1" relative="1" as="geometry">
            <mxPoint as="offset" />
          </mxGeometry>
        </mxCell>
        <mxCell id="aOoXSuY79iah1pnQ__aG-75" value="shop/applications" style="rhombus;whiteSpace=wrap;html=1;strokeWidth=2;" parent="1" vertex="1">
          <mxGeometry x="-20" y="1100" width="110" height="110" as="geometry" />
        </mxCell>
        <mxCell id="aOoXSuY79iah1pnQ__aG-78" value="3108-enago&#xa;&#xa;" style="shape=waypoint;sketch=0;size=6;pointerEvents=1;points=[];fillColor=default;resizable=0;rotatable=0;perimeter=centerPerimeter;snapToPoint=1;strokeWidth=2;" parent="1" vertex="1">
          <mxGeometry x="-165" y="1145" width="20" height="20" as="geometry" />
        </mxCell>
        <mxCell id="aOoXSuY79iah1pnQ__aG-84" value="" style="edgeStyle=orthogonalEdgeStyle;rounded=0;orthogonalLoop=1;jettySize=auto;html=1;" parent="1" source="aOoXSuY79iah1pnQ__aG-81" target="aOoXSuY79iah1pnQ__aG-83" edge="1">
          <mxGeometry relative="1" as="geometry" />
        </mxCell>
        <mxCell id="aOoXSuY79iah1pnQ__aG-85" value="ano" style="edgeLabel;html=1;align=center;verticalAlign=middle;resizable=0;points=[];" parent="aOoXSuY79iah1pnQ__aG-84" vertex="1" connectable="0">
          <mxGeometry x="0.0378" y="2" relative="1" as="geometry">
            <mxPoint as="offset" />
          </mxGeometry>
        </mxCell>
        <mxCell id="aOoXSuY79iah1pnQ__aG-88" value="" style="edgeStyle=orthogonalEdgeStyle;rounded=0;orthogonalLoop=1;jettySize=auto;html=1;" parent="1" source="aOoXSuY79iah1pnQ__aG-81" target="aOoXSuY79iah1pnQ__aG-87" edge="1">
          <mxGeometry relative="1" as="geometry" />
        </mxCell>
        <mxCell id="aOoXSuY79iah1pnQ__aG-89" value="ne" style="edgeLabel;html=1;align=center;verticalAlign=middle;resizable=0;points=[];" parent="aOoXSuY79iah1pnQ__aG-88" vertex="1" connectable="0">
          <mxGeometry x="-0.2554" relative="1" as="geometry">
            <mxPoint as="offset" />
          </mxGeometry>
        </mxCell>
        <mxCell id="aOoXSuY79iah1pnQ__aG-81" value="web" style="rhombus;whiteSpace=wrap;html=1;strokeWidth=2;" parent="1" vertex="1">
          <mxGeometry x="-20" y="1290" width="110" height="110" as="geometry" />
        </mxCell>
        <mxCell id="aOoXSuY79iah1pnQ__aG-83" value="2906-enacs&#xa;&#xa;" style="shape=waypoint;sketch=0;size=6;pointerEvents=1;points=[];fillColor=default;resizable=0;rotatable=0;perimeter=centerPerimeter;snapToPoint=1;strokeWidth=2;" parent="1" vertex="1">
          <mxGeometry x="-165" y="1335" width="20" height="20" as="geometry" />
        </mxCell>
        <mxCell id="aOoXSuY79iah1pnQ__aG-87" value="&#xa;&#xa;0102-enaft" style="shape=waypoint;sketch=0;size=6;pointerEvents=1;points=[];fillColor=default;resizable=0;rotatable=0;perimeter=centerPerimeter;snapToPoint=1;strokeWidth=2;" parent="1" vertex="1">
          <mxGeometry x="25" y="1525" width="20" height="20" as="geometry" />
        </mxCell>
        <mxCell id="8ODPSEy53-7lQ5bBWnei-7" value="" style="edgeStyle=orthogonalEdgeStyle;rounded=0;orthogonalLoop=1;jettySize=auto;html=1;" edge="1" parent="1" source="8ODPSEy53-7lQ5bBWnei-1" target="8ODPSEy53-7lQ5bBWnei-6">
          <mxGeometry relative="1" as="geometry" />
        </mxCell>
        <mxCell id="8ODPSEy53-7lQ5bBWnei-8" value="ano" style="edgeLabel;html=1;align=center;verticalAlign=middle;resizable=0;points=[];" vertex="1" connectable="0" parent="8ODPSEy53-7lQ5bBWnei-7">
          <mxGeometry x="-0.2333" y="-1" relative="1" as="geometry">
            <mxPoint as="offset" />
          </mxGeometry>
        </mxCell>
        <mxCell id="8ODPSEy53-7lQ5bBWnei-1" value="enafz" style="rhombus;whiteSpace=wrap;html=1;strokeWidth=2;" vertex="1" parent="1">
          <mxGeometry x="480" y="468" width="80" height="80" as="geometry" />
        </mxCell>
        <mxCell id="8ODPSEy53-7lQ5bBWnei-4" value="" style="endArrow=classic;html=1;rounded=0;exitX=0.5;exitY=1;exitDx=0;exitDy=0;entryX=0.5;entryY=0;entryDx=0;entryDy=0;" edge="1" parent="1" source="8ODPSEy53-7lQ5bBWnei-1" target="aOoXSuY79iah1pnQ__aG-23">
          <mxGeometry width="50" height="50" relative="1" as="geometry">
            <mxPoint x="780" y="510" as="sourcePoint" />
            <mxPoint x="830" y="460" as="targetPoint" />
          </mxGeometry>
        </mxCell>
        <mxCell id="8ODPSEy53-7lQ5bBWnei-5" value="ne" style="edgeLabel;html=1;align=center;verticalAlign=middle;resizable=0;points=[];" vertex="1" connectable="0" parent="8ODPSEy53-7lQ5bBWnei-4">
          <mxGeometry y="-1" relative="1" as="geometry">
            <mxPoint as="offset" />
          </mxGeometry>
        </mxCell>
        <mxCell id="8ODPSEy53-7lQ5bBWnei-6" value="0106-enafz&#xa;&#xa;" style="shape=waypoint;sketch=0;size=6;pointerEvents=1;points=[];fillColor=default;resizable=0;rotatable=0;perimeter=centerPerimeter;snapToPoint=1;strokeWidth=2;" vertex="1" parent="1">
          <mxGeometry x="670" y="498" width="20" height="20" as="geometry" />
        </mxCell>
      </root>
    </mxGraphModel>
  </diagram>
</mxfile>
